<svg height="512" width="512" xmlns="http://www.w3.org/2000/svg">
  <circle cx="256" cy="256" fill="#367bea" r="256"/>
  <path d="M512 256c0-18.404-1.942-36.354-5.633-53.657L369.882 66.236l-40.428 17.496L94.09 284.39l38.553 38.58-55.571 82.305 91.353 91.353C195.746 506.574 225.24 512 256 512c141.385 0 256-114.615 256-256z" fill="#1548ba"/>
  <path d="m174.29 460.191-25.923-67.619-71.295 12.704 82.112-145.367 97.218 54.914z" fill="#fff"/>
  <path d="m337.71 460.191 25.923-67.619 71.295 12.704-82.112-145.367-97.218 54.914z" fill="#e0e0e0"/>
  <path d="M287.775 40.53a41.652 41.652 0 0 0 41.652 13.534c24.996-6.102 49.491 11.695 51.412 37.353a41.653 41.653 0 0 0 25.742 35.432c23.809 9.756 33.165 38.552 19.638 60.439a41.65 41.65 0 0 0 0 43.796c13.528 21.887 4.171 50.683-19.638 60.439a41.65 41.65 0 0 0-25.742 35.432c-1.921 25.659-26.416 43.455-51.412 37.353a41.65 41.65 0 0 0-41.652 13.534c-16.636 19.629-46.913 19.629-63.549 0a41.652 41.652 0 0 0-41.652-13.534c-24.996 6.102-49.492-11.695-51.412-37.353a41.653 41.653 0 0 0-25.742-35.432c-23.809-9.756-33.165-38.552-19.638-60.439a41.65 41.65 0 0 0 0-43.796c-13.528-21.887-4.171-50.683 19.638-60.439a41.65 41.65 0 0 0 25.742-35.432c1.921-25.659 26.416-43.455 51.412-37.353a41.65 41.65 0 0 0 41.652-13.534c16.635-19.629 46.913-19.629 63.549 0z" fill="#ffe029"/>
  <path d="M426.22 231.084a41.65 41.65 0 0 1 0-43.796c13.528-21.887 4.172-50.683-19.638-60.439a41.652 41.652 0 0 1-25.743-35.431c-1.921-25.659-26.416-43.455-51.413-37.353a41.649 41.649 0 0 1-41.652-13.534c-8.318-9.814-20.046-14.722-31.775-14.722v366.755c11.728 0 23.457-4.907 31.775-14.722a41.652 41.652 0 0 1 41.652-13.534c24.996 6.102 49.491-11.695 51.413-37.353a41.652 41.652 0 0 1 25.743-35.432c23.809-9.756 33.165-38.552 19.638-60.439z" fill="#ffba1f"/>
  <circle cx="256" cy="209.186" fill="#ffba1f" r="131.382"/>
  <path d="M256 77.804v262.764c72.56 0 131.382-58.822 131.382-131.382S328.56 77.804 256 77.804z" fill="#ff9912"/>
  <g>
    <path d="M196.063 161.954h10.563v38.41h11.957v-38.41h10.65v-11.957h-33.17z" fill="#52525b"/>
    <path d="M303.293 149.997h-16.674v50.367h11.957v-16.716a1091 1091 0 0 1 4.717-.016c9.391 0 17.031-7.544 17.031-16.818-.001-9.273-7.641-16.817-17.031-16.817zm0 21.678c-1.115 0-2.89.007-4.674.015-.008-1.86-.016-3.723-.016-4.876 0-.988-.005-2.907-.009-4.861h4.699c2.75 0 5.073 2.226 5.073 4.861s-2.323 4.861-5.073 4.861z" fill="#2c2c33"/>
    <path d="M256.554 149.997c-13.886 0-25.184 11.297-25.184 25.184 0 13.886 11.298 25.184 25.184 25.184s25.184-11.297 25.184-25.184-11.298-25.184-25.184-25.184zm0 38.409c-7.294 0-13.227-5.933-13.227-13.226s5.933-13.226 13.227-13.226c7.293 0 13.227 5.933 13.227 13.226-.001 7.293-5.934 13.226-13.227 13.226z" fill="#52525b"/>
    <path d="M281.738 175.18c0-13.886-11.298-25.184-25.184-25.184-.185 0-.37.002-.554.006v11.962c.184-.008.368-.012.554-.012 7.293 0 13.227 5.934 13.227 13.227s-5.934 13.226-13.227 13.226c-.186 0-.37-.004-.554-.011v11.962c.184.004.368.006.554.006 13.886.002 25.184-11.296 25.184-25.182z" fill="#2c2c33"/>
    <g>
      <path d="M294.475 262.098h-11.011v-50.296l10.275.004 17.479 27.817v-27.892h11.011v50.367h-10.275l-17.479-28.424zM343.249 211.731l-5.287.022v-.013l-9.697.053-1.728.007v50.297l5.745-.021c.334-.001 8.231-.031 11.389-.087 12.163-.213 20.992-10.763 20.992-25.086 0-15.055-8.606-25.172-21.414-25.172zm.225 38.993c-1.24.022-3.289.04-5.3.054l-.152-27.779h5.226c9.415 0 10.147 10.643 10.147 13.905.001 6.792-3.067 13.7-9.921 13.82z" fill="#2c2c33"/>
      <path d="M270.096 262.098h11.768l-19.006-50.367-9.25.007-19.182 50.36h11.79l3.889-10.214h16.137zm-15.797-21.226 3.913-10.275 3.877 10.275z" fill="#52525b"/>
      <path d="M270.096 262.098h11.768l-19.006-50.367-6.858.006v24.667l2.211-5.806 3.877 10.275H256v11.011h10.243z" fill="#2c2c33"/>
      <g fill="#52525b">
        <path d="M188.255 233.752a14.45 14.45 0 0 0 2.079-7.46c0-8.029-6.532-14.561-14.562-14.561h-16.937v50.391l5.53-.024c.001 0 10.508-.047 13.404-.047 8.877 0 16.099-7.222 16.099-16.099 0-4.874-2.18-9.246-5.613-12.2zm-18.409-11.009h5.926a3.553 3.553 0 0 1 3.55 3.549 3.554 3.554 0 0 1-3.55 3.55c-.851 0-2.464.005-4.216.011h-1.71zm7.923 28.296c-1.47 0-4.896.012-7.922.024v-10.192l1.774-.006h6.148c2.805 0 5.088 2.282 5.088 5.087s-2.283 5.087-5.088 5.087zM229.211 227.465c0-8.676-7.318-15.734-16.312-15.734h-15.977v50.367h11.012v-14.907l11.456 14.904h13.889l-15.164-19.727c6.443-2.102 11.096-7.986 11.096-14.903zm-16.312-4.722c2.873 0 5.301 2.162 5.301 4.722s-2.427 4.722-5.301 4.722c-1.162 0-3.054.007-4.91.016-.009-1.8-.016-3.622-.016-4.738 0-.954-.004-2.833-.01-4.722z"/>
      </g>
    </g>
  </g>
</svg>
